# xmcd
#
# Track frame offsets: 
#        150
#        13217
#        27332
#        41670
#        54950
#        66347
#        78792
#        90382
#        101837
#        116432
#        132505
#        145362
#        160070
#        173562
#        186940
#        200082
#        212092
#        224145
#        235850
#        248392
#
# Disc length: 3492 seconds
#
# Revision: 9
# Processed by: cddbd v1.5.2PL0 Copyright (c) Steve Scherf et al.
# Submitted via: ExactAudioCopy v1.1
#
DISCID=1d0da214
DTITLE=Various Artist - Texas Guitar Killers - Disc 1
DYEAR=1995
DGENRE=Blues
TTITLE0=T-Bone Walker - My Baby Left Me (mono)
TTITLE1=T-Bone Walker - Come Back To Me Baby (mono)
TTITLE2=T-Bone Walker - I Can't Stand Being Away From You (mono)
TTITLE3=T-Bone Walker - She Is Going To Ruin Me (mono)
TTITLE4=Clarence 'Gatemouth' Brown - Gatmouth Boogie (mono)
TTITLE5=Clarence 'Gatemouth' Brown - Guitar In My Hand (mono)
TTITLE6=Clarence 'Gatemouth' Brown - After Sunset (mono)
TTITLE7=Clarence 'Gatemouth' Brown - Without Me Baby (mono)
TTITLE8=Lowell Fulson - Night and Day (mono)
TTITLE9=Lowell Fulson - Double Trouble Blues (mono)
TTITLE10=Lowell Fulson - Stormin and Rainin' (mono)
TTITLE11=Lowell Fulson - Good Woman Blues (mono)
TTITLE12=Lightnin' Hopkins - All Through My Dreams (mono)
TTITLE13=Lightnin' Hopkins - Mean And Evil Blues (mono)
TTITLE14=Smokey Hogg - Up Today Down Tomorrow (mono)
TTITLE15=Smokey Hogg - Great Big Mama (mono)
TTITLE16=Smokey Hogg - Worryin' Blues (mono)
TTITLE17=Smokey Hogg - Need My Help (mono)
TTITLE18=Smokey Hogg - In This World Alone (mono)
TTITLE19=Smokey Hogg - Key To My Door (mono)
EXTD=
EXTT0=
EXTT1=
EXTT2=
EXTT3=
EXTT4=
EXTT5=
EXTT6=
EXTT7=
EXTT8=
EXTT9=
EXTT10=
EXTT11=
EXTT12=
EXTT13=
EXTT14=
EXTT15=
EXTT16=
EXTT17=
EXTT18=
EXTT19=
PLAYORDER=
